# xmcd
#
# Track frame offsets: 
#        150
#        14705
#        30797
#        46497
#        61051
#        76959
#        93042
#        110141
#        125420
#        138962
#        153439
#        168150
#
# Disc length: 2534 seconds
#
# Revision: 0
# Processed by: cddbd v1.5.2PL0 Copyright (c) Steve Scherf et al.
# Submitted via: ExactAudioCopy v0.99pb4
#
DISCID=8c09e40c
DTITLE=Lindsay - 100 %
DYEAR=2010
DGENRE=Chanson
TTITLE0=Voor 100%
TTITLE1=Deze Nacht Mag Eeuwig Duren (Met The Sunsets)
TTITLE2=Verliefd In 1,2,3
TTITLE3=In De Hemel Van Liefde
TTITLE4=Zon Of Regen
TTITLE5=Een Bosje Bloemen Voor Je Moeder
TTITLE6=We Nemen Elkaar Zoals We Zijn (2010) (Met Christoff)
TTITLE7=Hoe Moet Ik Verder
TTITLE8=Voor Altijd Dicht Bij Mij
TTITLE9=Vaar Met Me Mee (Met Christoff)
TTITLE10=Als Een Engel
TTITLE11=Hitmedley
EXTD=
EXTT0=
EXTT1=
EXTT2=
EXTT3=
EXTT4=
EXTT5=
EXTT6=
EXTT7=
EXTT8=
EXTT9=
EXTT10=
EXTT11=
PLAYORDER=
